<svg width="21" height="21" viewBox="0 0 21 21" fill="none" xmlns="http://www.w3.org/2000/svg">
<path d="M11.6846 8.62353L11.7061 8.68311L11.7539 8.72412L11.7539 8.7251L11.7549 8.72607C11.7555 8.72666 11.7567 8.72707 11.7578 8.72803C11.7605 8.73039 11.7645 8.73438 11.7695 8.73877C11.7797 8.74758 11.7944 8.76059 11.8135 8.77686C11.8516 8.80937 11.9074 8.85594 11.9766 8.9126C12.1149 9.02584 12.3099 9.18023 12.5371 9.34521C12.9858 9.67099 13.5835 10.055 14.126 10.2319C14.451 10.3379 14.8459 10.3973 15.2148 10.4321L11.832 11.6841L11.7734 11.7056L11.7314 11.7534L11.7275 11.7573C11.7252 11.76 11.7221 11.7641 11.7178 11.769C11.709 11.7792 11.6959 11.794 11.6797 11.813C11.6472 11.8511 11.6006 11.9068 11.5439 11.9761C11.4307 12.1144 11.2763 12.3094 11.1113 12.5366C10.7855 12.9854 10.4005 13.583 10.2236 14.1255C10.1177 14.4505 10.0583 14.8454 10.0234 15.2144L9.61719 14.1167L8.77246 11.8315L8.75 11.7729L8.70312 11.731L8.69922 11.7271C8.69657 11.7247 8.69242 11.7216 8.6875 11.7173C8.6774 11.7085 8.66251 11.6954 8.64355 11.6792C8.60547 11.6467 8.54971 11.6001 8.48047 11.5435C8.34218 11.4302 8.1472 11.2759 7.91992 11.1108C7.47119 10.7851 6.87349 10.4001 6.33105 10.2231C6.00583 10.1171 5.61036 10.0578 5.24121 10.0229L8.62402 8.77197L8.68359 8.74951L8.72461 8.70264L8.72559 8.70264L8.72656 8.70166C8.72713 8.70101 8.72755 8.69983 8.72852 8.69873C8.73086 8.69606 8.73493 8.69199 8.73926 8.68701C8.74806 8.67689 8.76111 8.66208 8.77734 8.64307C8.80986 8.60498 8.85639 8.54922 8.91309 8.47998C9.02632 8.34167 9.1807 8.1467 9.3457 7.91943C9.67144 7.47076 10.0555 6.87294 10.2324 6.33057C10.3385 6.00536 10.3978 5.60985 10.4326 5.24072L11.6846 8.62353Z" stroke="white" stroke-width="0.5"/>
</svg>
